<svg xmlns="http://www.w3.org/2000/svg" version="1.1" xmlns:xlink="http://www.w3.org/1999/xlink"
    xmlns:svgjs="http://svgjs.dev/svgjs" width="1440" height="560" preserveAspectRatio="none" viewBox="0 0 1440 560">
    <g mask="url(&quot;#SvgjsMask1021&quot;)" fill="none">
        <path
            d="M104.22 0C104.22 34.69 29.89 115.8 0 115.8C-22.22 115.8 -27.43 30.47 0 0C24.68 -27.43 104.22 -23.21 104.22 0"
            stroke="rgba(255, 205, 0, 1)" stroke-width="2"></path>
        <path
            d="M420 21.54C406.99 11.12 394.55 6.11 394.55 0C394.55 -4.66 407.27 0 420 0C490 0 490 0 560 0C618.34 0 676.67 -26.35 676.67 0C676.67 39.86 623.79 127.08 560 132.43C495.45 137.85 489.71 77.34 420 21.54"
            stroke="rgba(255, 205, 0, 1)" stroke-width="2"></path>
        <path
            d="M720 140C747.53 75.35 723.86 45.93 763.23 0C783.86 -24.07 801.62 0 840 0C910 0 910 0 980 0C1050 0 1050 0 1120 0C1155.86 0 1161.88 -14.55 1191.71 0C1231.88 19.6 1226.07 33.94 1260 68.29C1295.21 103.94 1291.02 109.4 1330 140C1361.02 164.35 1368.12 178.18 1400 178.18C1420.83 178.18 1435.42 162.12 1435.42 140C1435.42 102.19 1424.59 94.41 1400 58.33C1376.88 24.41 1340 16.99 1340 0C1340 -12.18 1370 0 1400 0C1470 0 1505 -35 1540 0C1575 35 1540 70 1540 140C1540 210 1540 210 1540 280C1540 330.62 1569.37 360.93 1540 381.23C1499.37 409.32 1468.89 386.77 1400 376.79C1328.89 366.49 1319.87 328.01 1260 340.67C1217.71 349.61 1231.08 383.48 1195.68 420C1161.08 455.7 1152.36 447.89 1120 485.12C1091.52 517.89 1107.82 541.91 1074 560C1037.82 579.35 1027 560 980 560C922.28 560 908.56 580 864.56 560C838.56 548.18 858.64 496.36 840 496.36C815.93 496.36 816 543.24 779.13 560C746 575.06 739.57 560 700 560C663.6 560 656.4 575.93 627.2 560C586.4 537.75 588.83 483.64 560 483.64C535.69 483.64 553.09 542.46 520.93 560C483.09 580.64 470.46 560 420 560C372.83 560 370.81 567.97 325.65 560C300.81 555.62 302.19 535.29 280 535.29C261.26 535.29 264.58 556.33 243.79 560C194.58 568.69 191.89 560 140 560C70 560 35 595 0 560C-35 525 0 490 0 420C0 350 0 350 0 280C0 223.06 -31.17 196.59 0 166.13C38.83 128.18 69.55 147.95 140 143.18C209.55 138.47 217.99 122.62 280 147.18C357.99 178.07 351.51 198.93 420 254.07C434.01 265.34 445 264.55 445 280C445 309.33 428.47 310.75 420 343.64C410.44 380.75 408.95 382.68 408.95 420C408.95 432.21 410.27 442.7 420 442.7C442.04 442.7 446.57 432.06 472.5 420C516.57 399.5 526.19 409.75 560 377.58C599.76 339.75 589.82 328.79 619.63 280C659.82 214.24 656.01 209.83 700 148.48C706.2 139.83 715.92 149.59 720 140"
            stroke="rgba(255, 205, 0, 1)" stroke-width="2"></path>
        <path
            d="M980 62.22C957.26 62.22 916.36 111.19 916.36 140C916.36 158.94 950.48 157.72 980 157.72C991.27 157.72 997.95 151.47 997.95 140C997.95 103.72 998.06 62.22 980 62.22"
            stroke="rgba(255, 205, 0, 1)" stroke-width="2"></path>
        <path
            d="M1200.5 560C1200.5 538.76 1230.67 490 1260 490C1288.75 490 1316.67 538.52 1316.67 560C1316.67 573.52 1288.34 560 1260 560C1230.25 560 1200.5 573.76 1200.5 560"
            stroke="rgba(255, 205, 0, 1)" stroke-width="2"></path>
        <path
            d="M1462.5 560C1462.5 533.3 1517.89 471.43 1540 471.43C1556.64 471.43 1560.67 536.38 1540 560C1521.92 580.67 1462.5 577.58 1462.5 560"
            stroke="rgba(255, 205, 0, 1)" stroke-width="2"></path>
        <path
            d="M65.33 0C65.33 21.75 18.74 72.59 0 72.59C-13.93 72.59 -17.19 19.1 0 0C15.47 -17.19 65.33 -14.55 65.33 0"
            stroke="rgba(255, 205, 0, 1)" stroke-width="2"></path>
        <path
            d="M560 85.14C514.84 85.14 464.55 24.38 464.55 0C464.55 -18.19 512.28 0 560 0C597.5 0 635 -16.94 635 0C635 25.63 600.06 85.14 560 85.14"
            stroke="rgba(255, 205, 0, 1)" stroke-width="2"></path>
        <path
            d="M1042.82 140C1086.84 80.23 1073.59 11.91 1120 11.91C1176.22 11.91 1248.09 79.57 1248.09 140C1248.09 194.63 1182.42 189.21 1120 242.03C1099.71 259.21 1087.26 255.49 1082.67 280C1070.6 344.47 1100.67 353.18 1086.67 420C1071.34 493.18 1065.45 505.6 1024 560C1012.11 575.6 1002 560 980 560C952.98 560 936.61 579.3 925.96 560C897.99 509.3 926.92 484.93 902.76 420C883.94 369.43 869.45 329 840 329C812.07 329 819.75 378.82 788 420C749.75 469.62 743.37 510.59 700 510.59C657.75 510.59 620.2 470.93 616.76 420C612.42 355.63 649.52 349.41 684.44 280C691.14 266.69 686.49 258.8 700 254.55C764.27 234.3 770.25 244.08 840 231C910.25 217.82 917.31 230.16 980 202.03C1018.72 184.66 1016.84 175.29 1042.82 140"
            stroke="rgba(255, 205, 0, 1)" stroke-width="2"></path>
        <path
            d="M1477.59 140C1485.51 76.76 1410.21 39.91 1428 0C1441.42 -30.09 1515.11 -31.11 1540 0C1571.11 38.89 1540 70 1540 140C1540 210 1540 210 1540 280C1540 303.69 1557.69 320.61 1540 327.38C1487.69 347.4 1466.36 346.63 1400 333.58C1345.89 322.94 1299.07 307.33 1299.07 280C1299.07 252.36 1355.08 258.87 1400 223.64C1444.34 188.87 1471.51 188.58 1477.59 140"
            stroke="rgba(255, 205, 0, 1)" stroke-width="2"></path>
        <path
            d="M0 212.8C47.34 193.44 70.09 216.71 140 222.73C210.09 228.77 215.08 217.61 280 236.92C311.33 246.24 319.17 250.56 332.5 280C360.62 342.1 377.67 359.72 362.89 420C351.42 466.78 323.74 459.99 280 494.12C234.02 529.99 234.48 535.99 183.45 560C164.48 568.93 161.73 560 140 560C104 560 76.09 583.55 68 560C52.03 513.55 111.4 474.99 91.88 420C77.4 379.2 24.98 406.48 0 368.42C-20.96 336.48 0 324.21 0 280C0 246.4 -22.66 222.07 0 212.8"
            stroke="rgba(255, 205, 0, 1)" stroke-width="2"></path>
        <path
            d="M401.74 560C401.74 553.02 410.68 537.3 420 537.3C429.58 537.3 439.53 553.13 439.53 560C439.53 564.48 429.76 560 420 560C410.87 560 401.74 564.37 401.74 560"
            stroke="rgba(255, 205, 0, 1)" stroke-width="2"></path>
        <path
            d="M1525 560C1525 554.83 1535.72 542.86 1540 542.86C1543.22 542.86 1544 555.43 1540 560C1536.5 564 1525 563.4 1525 560"
            stroke="rgba(255, 205, 0, 1)" stroke-width="2"></path>
        <path d="M26.44 0C26.44 8.8 7.58 29.38 0 29.38C-5.64 29.38 -6.96 7.73 0 0C6.26 -6.96 26.44 -5.89 26.44 0"
            stroke="rgba(255, 205, 0, 1)" stroke-width="2"></path>
        <path
            d="M560 37.84C539.93 37.84 517.58 10.83 517.58 0C517.58 -8.09 538.79 0 560 0C576.66 0 593.33 -7.53 593.33 0C593.33 11.39 577.8 37.84 560 37.84"
            stroke="rgba(255, 205, 0, 1)" stroke-width="2"></path>
        <path
            d="M1087.69 140C1087.69 114.04 1100.57 86.38 1120 86.38C1143.54 86.38 1173.62 114.7 1173.62 140C1173.62 162.87 1144.12 182.71 1120 182.71C1101.16 182.71 1087.69 162.21 1087.69 140"
            stroke="rgba(255, 205, 0, 1)" stroke-width="2"></path>
        <path
            d="M1519.76 140C1508.11 70.13 1490.19 53.99 1498 0C1500.31 -16.01 1535.15 -16.15 1540 0C1556.15 53.85 1540 70 1540 140C1540 196 1545.02 252 1540 252C1534.9 252 1529.11 196.13 1519.76 140"
            stroke="rgba(255, 205, 0, 1)" stroke-width="2"></path>
        <path
            d="M0 259.47C34.69 259.47 85.56 268.23 85.56 280C85.56 292 32.88 307.02 0 307.02C-9.9 307.02 0 293.51 0 280C0 269.74 -8.09 259.47 0 259.47"
            stroke="rgba(255, 205, 0, 1)" stroke-width="2"></path>
        <path
            d="M908.11 280C908.11 254.27 945.84 246.33 980 246.33C1003.95 246.33 1024.33 257.69 1024.33 280C1024.33 322.02 1007.2 375 980 375C949.09 375 908.11 318.61 908.11 280"
            stroke="rgba(255, 205, 0, 1)" stroke-width="2"></path>
        <path
            d="M1380.47 280C1380.47 274.65 1389.15 269.09 1400 269.09C1445.58 269.09 1493.33 274.68 1493.33 280C1493.33 285.32 1445.67 290.37 1400 290.37C1389.24 290.37 1380.47 285.29 1380.47 280"
            stroke="rgba(255, 205, 0, 1)" stroke-width="2"></path>
        <path
            d="M197.65 420C197.65 386.35 246.56 335.15 280 335.15C306.16 335.15 316.84 381.61 316.84 420C316.84 440.51 301.32 452.94 280 452.94C241.73 452.94 197.65 445.24 197.65 420"
            stroke="rgba(255, 205, 0, 1)" stroke-width="2"></path>
    </g>
    <defs>
        <mask id="SvgjsMask1021">
            <rect width="1440" height="560" fill="#ffffff"></rect>
        </mask>
    </defs>
</svg>