<svg id="visual" viewBox="0 0 495 120" width="495" height="120" xmlns="http://www.w3.org/2000/svg"
    xmlns:xlink="http://www.w3.org/1999/xlink" version="1.1">
    <path
        d="M0 86L5.8 79.8C11.7 73.7 23.3 61.3 35.2 61.2C47 61 59 73 70.8 78.8C82.7 84.7 94.3 84.3 106 81.3C117.7 78.3 129.3 72.7 141.2 72.7C153 72.7 165 78.3 176.8 81.2C188.7 84 200.3 84 212.2 79.3C224 74.7 236 65.3 247.8 62C259.7 58.7 271.3 61.3 283 60.3C294.7 59.3 306.3 54.7 318.2 54.3C330 54 342 58 353.8 63.3C365.7 68.7 377.3 75.3 389 78C400.7 80.7 412.3 79.3 424.2 79.7C436 80 448 82 459.8 84.7C471.7 87.3 483.3 90.7 489.2 92.3L495 94L495 121L489.2 121C483.3 121 471.7 121 459.8 121C448 121 436 121 424.2 121C412.3 121 400.7 121 389 121C377.3 121 365.7 121 353.8 121C342 121 330 121 318.2 121C306.3 121 294.7 121 283 121C271.3 121 259.7 121 247.8 121C236 121 224 121 212.2 121C200.3 121 188.7 121 176.8 121C165 121 153 121 141.2 121C129.3 121 117.7 121 106 121C94.3 121 82.7 121 70.8 121C59 121 47 121 35.2 121C23.3 121 11.7 121 5.8 121L0 121Z"
        fill="#ffcd00"></path>
    <path
        d="M0 68L5.8 74C11.7 80 23.3 92 35.2 94.7C47 97.3 59 90.7 70.8 85.2C82.7 79.7 94.3 75.3 106 75C117.7 74.7 129.3 78.3 141.2 78.2C153 78 165 74 176.8 77.7C188.7 81.3 200.3 92.7 212.2 92.2C224 91.7 236 79.3 247.8 72C259.7 64.7 271.3 62.3 283 64.2C294.7 66 306.3 72 318.2 74.5C330 77 342 76 353.8 73.3C365.7 70.7 377.3 66.3 389 69.8C400.7 73.3 412.3 84.7 424.2 89.3C436 94 448 92 459.8 87.8C471.7 83.7 483.3 77.3 489.2 74.2L495 71L495 121L489.2 121C483.3 121 471.7 121 459.8 121C448 121 436 121 424.2 121C412.3 121 400.7 121 389 121C377.3 121 365.7 121 353.8 121C342 121 330 121 318.2 121C306.3 121 294.7 121 283 121C271.3 121 259.7 121 247.8 121C236 121 224 121 212.2 121C200.3 121 188.7 121 176.8 121C165 121 153 121 141.2 121C129.3 121 117.7 121 106 121C94.3 121 82.7 121 70.8 121C59 121 47 121 35.2 121C23.3 121 11.7 121 5.8 121L0 121Z"
        fill="#f5a310"></path>
    <path
        d="M0 92L5.8 94.3C11.7 96.7 23.3 101.3 35.2 101C47 100.7 59 95.3 70.8 89.7C82.7 84 94.3 78 106 77.7C117.7 77.3 129.3 82.7 141.2 86.8C153 91 165 94 176.8 97C188.7 100 200.3 103 212.2 102.8C224 102.7 236 99.3 247.8 95C259.7 90.7 271.3 85.3 283 86.5C294.7 87.7 306.3 95.3 318.2 95.8C330 96.3 342 89.7 353.8 88.3C365.7 87 377.3 91 389 94C400.7 97 412.3 99 424.2 100C436 101 448 101 459.8 96.7C471.7 92.3 483.3 83.7 489.2 79.3L495 75L495 121L489.2 121C483.3 121 471.7 121 459.8 121C448 121 436 121 424.2 121C412.3 121 400.7 121 389 121C377.3 121 365.7 121 353.8 121C342 121 330 121 318.2 121C306.3 121 294.7 121 283 121C271.3 121 259.7 121 247.8 121C236 121 224 121 212.2 121C200.3 121 188.7 121 176.8 121C165 121 153 121 141.2 121C129.3 121 117.7 121 106 121C94.3 121 82.7 121 70.8 121C59 121 47 121 35.2 121C23.3 121 11.7 121 5.8 121L0 121Z"
        fill="#e27b20"></path>
    <path
        d="M0 90L5.8 90.2C11.7 90.3 23.3 90.7 35.2 93.3C47 96 59 101 70.8 100.8C82.7 100.7 94.3 95.3 106 94.2C117.7 93 129.3 96 141.2 95.8C153 95.7 165 92.3 176.8 93C188.7 93.7 200.3 98.3 212.2 102.7C224 107 236 111 247.8 109C259.7 107 271.3 99 283 98.2C294.7 97.3 306.3 103.7 318.2 105.3C330 107 342 104 353.8 101.7C365.7 99.3 377.3 97.7 389 96.5C400.7 95.3 412.3 94.7 424.2 94C436 93.3 448 92.7 459.8 95.8C471.7 99 483.3 106 489.2 109.5L495 113L495 121L489.2 121C483.3 121 471.7 121 459.8 121C448 121 436 121 424.2 121C412.3 121 400.7 121 389 121C377.3 121 365.7 121 353.8 121C342 121 330 121 318.2 121C306.3 121 294.7 121 283 121C271.3 121 259.7 121 247.8 121C236 121 224 121 212.2 121C200.3 121 188.7 121 176.8 121C165 121 153 121 141.2 121C129.3 121 117.7 121 106 121C94.3 121 82.7 121 70.8 121C59 121 47 121 35.2 121C23.3 121 11.7 121 5.8 121L0 121Z"
        fill="#c85629"></path>
    <path
        d="M0 116L5.8 116C11.7 116 23.3 116 35.2 113C47 110 59 104 70.8 101.2C82.7 98.3 94.3 98.7 106 100.2C117.7 101.7 129.3 104.3 141.2 105.2C153 106 165 105 176.8 106.3C188.7 107.7 200.3 111.3 212.2 109.8C224 108.3 236 101.7 247.8 98.5C259.7 95.3 271.3 95.7 283 97.5C294.7 99.3 306.3 102.7 318.2 105.7C330 108.7 342 111.3 353.8 111.8C365.7 112.3 377.3 110.7 389 109.8C400.7 109 412.3 109 424.2 108.5C436 108 448 107 459.8 106C471.7 105 483.3 104 489.2 103.5L495 103L495 121L489.2 121C483.3 121 471.7 121 459.8 121C448 121 436 121 424.2 121C412.3 121 400.7 121 389 121C377.3 121 365.7 121 353.8 121C342 121 330 121 318.2 121C306.3 121 294.7 121 283 121C271.3 121 259.7 121 247.8 121C236 121 224 121 212.2 121C200.3 121 188.7 121 176.8 121C165 121 153 121 141.2 121C129.3 121 117.7 121 106 121C94.3 121 82.7 121 70.8 121C59 121 47 121 35.2 121C23.3 121 11.7 121 5.8 121L0 121Z"
        fill="#a8342d"></path>
</svg>