<svg id="visual" viewBox="0 0 482 120" width="482" height="120" xmlns="http://www.w3.org/2000/svg" xmlns:xlink="http://www.w3.org/1999/xlink" version="1.1"><path d="M0 61L6.7 65.3C13.3 69.7 26.7 78.3 40 82.5C53.3 86.7 66.7 86.3 80.2 86.3C93.7 86.3 107.3 86.7 120.8 82.7C134.3 78.7 147.7 70.3 161 66.3C174.3 62.3 187.7 62.7 201 69.8C214.3 77 227.7 91 241 95.3C254.3 99.7 267.7 94.3 281 88.8C294.3 83.3 307.7 77.7 321.2 77.5C334.7 77.3 348.3 82.7 361.8 84.7C375.3 86.7 388.7 85.3 402 86.2C415.3 87 428.7 90 442 85.7C455.3 81.3 468.7 69.7 475.3 63.8L482 58L482 121L475.3 121C468.7 121 455.3 121 442 121C428.7 121 415.3 121 402 121C388.7 121 375.3 121 361.8 121C348.3 121 334.7 121 321.2 121C307.7 121 294.3 121 281 121C267.7 121 254.3 121 241 121C227.7 121 214.3 121 201 121C187.7 121 174.3 121 161 121C147.7 121 134.3 121 120.8 121C107.3 121 93.7 121 80.2 121C66.7 121 53.3 121 40 121C26.7 121 13.3 121 6.7 121L0 121Z" fill="#FCAF3C" stroke-linecap="round" stroke-linejoin="miter"></path></svg>