<svg id="visual" viewBox="0 0 570 680" width="570" height="680" xmlns="http://www.w3.org/2000/svg"
    xmlns:xlink="http://www.w3.org/1999/xlink" version="1.1">
    <path
        d="M0 540L10.5 538.5C21 537 42 534 63.2 531C84.3 528 105.7 525 126.8 529C148 533 169 544 190 531C211 518 232 481 253.2 478C274.3 475 295.7 506 316.8 520.5C338 535 359 533 380 530.8C401 528.7 422 526.3 443.2 525.2C464.3 524 485.7 524 506.8 510C528 496 549 468 559.5 454L570 440L570 681L559.5 681C549 681 528 681 506.8 681C485.7 681 464.3 681 443.2 681C422 681 401 681 380 681C359 681 338 681 316.8 681C295.7 681 274.3 681 253.2 681C232 681 211 681 190 681C169 681 148 681 126.8 681C105.7 681 84.3 681 63.2 681C42 681 21 681 10.5 681L0 681Z"
        fill="#ffcd00"></path>
    <path
        d="M0 505L10.5 501.3C21 497.7 42 490.3 63.2 500C84.3 509.7 105.7 536.3 126.8 546.5C148 556.7 169 550.3 190 544.7C211 539 232 534 253.2 524.3C274.3 514.7 295.7 500.3 316.8 510.7C338 521 359 556 380 574C401 592 422 593 443.2 582.5C464.3 572 485.7 550 506.8 548.2C528 546.3 549 564.7 559.5 573.8L570 583L570 681L559.5 681C549 681 528 681 506.8 681C485.7 681 464.3 681 443.2 681C422 681 401 681 380 681C359 681 338 681 316.8 681C295.7 681 274.3 681 253.2 681C232 681 211 681 190 681C169 681 148 681 126.8 681C105.7 681 84.3 681 63.2 681C42 681 21 681 10.5 681L0 681Z"
        fill="#ffb824"></path>
    <path
        d="M0 545L10.5 553.2C21 561.3 42 577.7 63.2 589.3C84.3 601 105.7 608 126.8 608.8C148 609.7 169 604.3 190 590C211 575.7 232 552.3 253.2 553.2C274.3 554 295.7 579 316.8 591C338 603 359 602 380 597.2C401 592.3 422 583.7 443.2 572.8C464.3 562 485.7 549 506.8 540.7C528 532.3 549 528.7 559.5 526.8L570 525L570 681L559.5 681C549 681 528 681 506.8 681C485.7 681 464.3 681 443.2 681C422 681 401 681 380 681C359 681 338 681 316.8 681C295.7 681 274.3 681 253.2 681C232 681 211 681 190 681C169 681 148 681 126.8 681C105.7 681 84.3 681 63.2 681C42 681 21 681 10.5 681L0 681Z"
        fill="#ffa537"></path>
    <path
        d="M0 561L10.5 564.2C21 567.3 42 573.7 63.2 579.8C84.3 586 105.7 592 126.8 595C148 598 169 598 190 604.3C211 610.7 232 623.3 253.2 619.5C274.3 615.7 295.7 595.3 316.8 586.7C338 578 359 581 380 587.8C401 594.7 422 605.3 443.2 603C464.3 600.7 485.7 585.3 506.8 589C528 592.7 549 615.3 559.5 626.7L570 638L570 681L559.5 681C549 681 528 681 506.8 681C485.7 681 464.3 681 443.2 681C422 681 401 681 380 681C359 681 338 681 316.8 681C295.7 681 274.3 681 253.2 681C232 681 211 681 190 681C169 681 148 681 126.8 681C105.7 681 84.3 681 63.2 681C42 681 21 681 10.5 681L0 681Z"
        fill="#ff9347"></path>
    <path
        d="M0 627L10.5 633.3C21 639.7 42 652.3 63.2 649C84.3 645.7 105.7 626.3 126.8 621.7C148 617 169 627 190 630.8C211 634.7 232 632.3 253.2 637C274.3 641.7 295.7 653.3 316.8 655.2C338 657 359 649 380 643C401 637 422 633 443.2 633.8C464.3 634.7 485.7 640.3 506.8 637.5C528 634.7 549 623.3 559.5 617.7L570 612L570 681L559.5 681C549 681 528 681 506.8 681C485.7 681 464.3 681 443.2 681C422 681 401 681 380 681C359 681 338 681 316.8 681C295.7 681 274.3 681 253.2 681C232 681 211 681 190 681C169 681 148 681 126.8 681C105.7 681 84.3 681 63.2 681C42 681 21 681 10.5 681L0 681Z"
        fill="#ff8356"></path>
</svg>