<svg xmlns="http://www.w3.org/2000/svg" height="24" viewBox="0 -960 960 960" width="24"><path d="M280-360q-50 0-85-35t-35-85q0-50 35-85t85-35q50 0 85 35t35 85q0 50-35 85t-85 35Zm0 137.523q80.957 0 147.479-45.979 66.522-45.978 93.783-123.065h10.608l38.434 38.999q8.261 7.696 17.805 11.044 9.543 3.348 19.804 3.348t19.522-3.348q9.261-3.348 17.522-11.609l48.044-48.043L750-351.783q8.261 7.261 17.739 10.892 9.479 3.63 19.74 3.195 10.261-.434 19.304-4.217 9.044-3.783 16.87-12.044l83.217-89.434q7.826-8.261 11.174-17.522t3.348-19.522q0-10.261-3.565-19.587t-11.392-17.152l-36.478-35.913q-7.695-7.696-17.174-11.544-9.478-3.848-20.304-3.848H520.696q-24.565-73.087-90.152-121.065Q364.957-737.523 280-737.523q-107.348 0-182.435 75.088Q22.477-587.348 22.477-480q0 106.783 75.37 182.153 75.37 75.37 182.153 75.37Z"/></svg>