<svg id="visual" viewBox="0 0 960 680" width="960" height="680" xmlns="http://www.w3.org/2000/svg"
    xmlns:xlink="http://www.w3.org/1999/xlink" version="1.1">
    <path
        d="M0 406L22.8 421.3C45.7 436.7 91.3 467.3 137 473.2C182.7 479 228.3 460 274 456C319.7 452 365.3 463 411.2 462.5C457 462 503 450 548.8 453.2C594.7 456.3 640.3 474.7 686 476.8C731.7 479 777.3 465 823 450.5C868.7 436 914.3 421 937.2 413.5L960 406L960 681L937.2 681C914.3 681 868.7 681 823 681C777.3 681 731.7 681 686 681C640.3 681 594.7 681 548.8 681C503 681 457 681 411.2 681C365.3 681 319.7 681 274 681C228.3 681 182.7 681 137 681C91.3 681 45.7 681 22.8 681L0 681Z"
        fill="#fcaf3c"></path>
    <path
        d="M0 537L22.8 532C45.7 527 91.3 517 137 513.5C182.7 510 228.3 513 274 503.3C319.7 493.7 365.3 471.3 411.2 474.7C457 478 503 507 548.8 512.5C594.7 518 640.3 500 686 484.8C731.7 469.7 777.3 457.3 823 463.8C868.7 470.3 914.3 495.7 937.2 508.3L960 521L960 681L937.2 681C914.3 681 868.7 681 823 681C777.3 681 731.7 681 686 681C640.3 681 594.7 681 548.8 681C503 681 457 681 411.2 681C365.3 681 319.7 681 274 681C228.3 681 182.7 681 137 681C91.3 681 45.7 681 22.8 681L0 681Z"
        fill="#fba230"></path>
    <path
        d="M0 555L22.8 556.8C45.7 558.7 91.3 562.3 137 559.8C182.7 557.3 228.3 548.7 274 547.7C319.7 546.7 365.3 553.3 411.2 558.3C457 563.3 503 566.7 548.8 564.5C594.7 562.3 640.3 554.7 686 542.8C731.7 531 777.3 515 823 508.5C868.7 502 914.3 505 937.2 506.5L960 508L960 681L937.2 681C914.3 681 868.7 681 823 681C777.3 681 731.7 681 686 681C640.3 681 594.7 681 548.8 681C503 681 457 681 411.2 681C365.3 681 319.7 681 274 681C228.3 681 182.7 681 137 681C91.3 681 45.7 681 22.8 681L0 681Z"
        fill="#fa9424"></path>
    <path
        d="M0 600L22.8 595.5C45.7 591 91.3 582 137 584.5C182.7 587 228.3 601 274 600.8C319.7 600.7 365.3 586.3 411.2 578.7C457 571 503 570 548.8 570.7C594.7 571.3 640.3 573.7 686 576C731.7 578.3 777.3 580.7 823 575.8C868.7 571 914.3 559 937.2 553L960 547L960 681L937.2 681C914.3 681 868.7 681 823 681C777.3 681 731.7 681 686 681C640.3 681 594.7 681 548.8 681C503 681 457 681 411.2 681C365.3 681 319.7 681 274 681C228.3 681 182.7 681 137 681C91.3 681 45.7 681 22.8 681L0 681Z"
        fill="#f98619"></path>
    <path
        d="M0 621L22.8 625.8C45.7 630.7 91.3 640.3 137 637.2C182.7 634 228.3 618 274 610C319.7 602 365.3 602 411.2 602C457 602 503 602 548.8 604.5C594.7 607 640.3 612 686 619C731.7 626 777.3 635 823 634.2C868.7 633.3 914.3 622.7 937.2 617.3L960 612L960 681L937.2 681C914.3 681 868.7 681 823 681C777.3 681 731.7 681 686 681C640.3 681 594.7 681 548.8 681C503 681 457 681 411.2 681C365.3 681 319.7 681 274 681C228.3 681 182.7 681 137 681C91.3 681 45.7 681 22.8 681L0 681Z"
        fill="#f7770f"></path>
</svg>